<mxfile host="65bd71144e">
    <diagram id="bHrdT3aiFnJUlpKGTt4t" name="Page-1">
        <mxGraphModel dx="2822" dy="2042" grid="1" gridSize="10" guides="1" tooltips="1" connect="1" arrows="1" fold="1" page="1" pageScale="1" pageWidth="850" pageHeight="1100" math="0" shadow="0">
            <root>
                <mxCell id="0"/>
                <mxCell id="1" parent="0"/>
                <mxCell id="135" value="&lt;font style=&quot;font-size: 58px;&quot;&gt;Parrot's garage Website&lt;/font&gt;" style="rounded=1;whiteSpace=wrap;html=1;fillColor=none;strokeWidth=8;strokeColor=#FFFFFF;perimeterSpacing=0;verticalAlign=top;fontSize=35;" parent="1" vertex="1">
                    <mxGeometry x="-280" y="-130" width="1100" height="1090" as="geometry"/>
                </mxCell>
                <mxCell id="12" value="" style="group" parent="1" vertex="1" connectable="0">
                    <mxGeometry x="-580" y="55" width="95" height="150" as="geometry"/>
                </mxCell>
                <mxCell id="111" value="" style="group" parent="12" vertex="1" connectable="0">
                    <mxGeometry x="-25" y="10" width="120" height="140" as="geometry"/>
                </mxCell>
                <mxCell id="6" value="" style="ellipse;fillColor=strokeColor;fontFamily=Verdana;fontSize=13;fontColor=#1A1A1A;shadow=1;" parent="111" vertex="1">
                    <mxGeometry x="45" width="30" height="30" as="geometry"/>
                </mxCell>
                <mxCell id="7" value="" style="html=1;points=[];perimeter=orthogonalPerimeter;fillColor=strokeColor;fontFamily=Verdana;fontSize=13;fontColor=#1A1A1A;" parent="111" vertex="1">
                    <mxGeometry x="57.5" y="30" width="5" height="50" as="geometry"/>
                </mxCell>
                <mxCell id="8" value="" style="html=1;points=[];perimeter=orthogonalPerimeter;fillColor=strokeColor;fontFamily=Verdana;fontSize=13;fontColor=#1A1A1A;rotation=-90;" parent="111" vertex="1">
                    <mxGeometry x="55" y="17.5" width="5" height="65" as="geometry"/>
                </mxCell>
                <mxCell id="10" value="" style="html=1;points=[];perimeter=orthogonalPerimeter;fillColor=strokeColor;fontFamily=Verdana;fontSize=13;fontColor=#1A1A1A;rotation=-45;" parent="111" vertex="1">
                    <mxGeometry x="70" y="70" width="5" height="40" as="geometry"/>
                </mxCell>
                <mxCell id="13" value="" style="html=1;points=[];perimeter=orthogonalPerimeter;fillColor=strokeColor;fontFamily=Verdana;fontSize=13;fontColor=#1A1A1A;rotation=45;" parent="111" vertex="1">
                    <mxGeometry x="44.99990257669734" y="69.99990257669731" width="5" height="40" as="geometry"/>
                </mxCell>
                <mxCell id="26" value="&lt;font color=&quot;#ffffff&quot;&gt;Visiteur&lt;/font&gt;" style="shape=note2;boundedLbl=1;whiteSpace=wrap;html=1;size=25;verticalAlign=middle;align=center;fontFamily=Verdana;fontSize=13;fontColor=#1A1A1A;fillColor=none;gradientColor=none;shadow=0;strokeColor=none;" parent="111" vertex="1">
                    <mxGeometry y="100" width="120" height="40" as="geometry"/>
                </mxCell>
                <mxCell id="14" value="" style="group;fillColor=none;gradientColor=#b3b3b3;strokeColor=none;" parent="1" vertex="1" connectable="0">
                    <mxGeometry x="890" y="490" width="143.75" height="610" as="geometry"/>
                </mxCell>
                <mxCell id="27" value="&lt;font color=&quot;#ffffff&quot;&gt;Administrateur&lt;/font&gt;" style="shape=note2;boundedLbl=1;whiteSpace=wrap;html=1;size=25;verticalAlign=middle;align=center;fontFamily=Verdana;fontSize=13;fontColor=#1A1A1A;fillColor=none;gradientColor=none;shadow=0;strokeColor=none;" parent="14" vertex="1">
                    <mxGeometry x="-25" y="110" width="120" height="40" as="geometry"/>
                </mxCell>
                <mxCell id="139" value="" style="group" parent="14" vertex="1" connectable="0">
                    <mxGeometry y="10" width="65" height="105.90990257669732" as="geometry"/>
                </mxCell>
                <mxCell id="15" value="" style="ellipse;fillColor=#f8cecc;fontFamily=Verdana;fontSize=13;gradientColor=#ea6b66;strokeColor=#b85450;" parent="139" vertex="1">
                    <mxGeometry x="20" width="30" height="30" as="geometry"/>
                </mxCell>
                <mxCell id="16" value="" style="html=1;points=[];perimeter=orthogonalPerimeter;fillColor=#f8cecc;fontFamily=Verdana;fontSize=13;gradientColor=#ea6b66;strokeColor=#b85450;" parent="139" vertex="1">
                    <mxGeometry x="32.5" y="30" width="5" height="50" as="geometry"/>
                </mxCell>
                <mxCell id="17" value="" style="html=1;points=[];perimeter=orthogonalPerimeter;fillColor=#f8cecc;fontFamily=Verdana;fontSize=13;rotation=-90;gradientColor=#ea6b66;strokeColor=#b85450;" parent="139" vertex="1">
                    <mxGeometry x="30" y="17.5" width="5" height="65" as="geometry"/>
                </mxCell>
                <mxCell id="18" value="" style="html=1;points=[];perimeter=orthogonalPerimeter;fillColor=#f8cecc;fontFamily=Verdana;fontSize=13;rotation=-45;gradientColor=#ea6b66;strokeColor=#b85450;" parent="139" vertex="1">
                    <mxGeometry x="45" y="70" width="5" height="40" as="geometry"/>
                </mxCell>
                <mxCell id="19" value="" style="html=1;points=[];perimeter=orthogonalPerimeter;fillColor=#f8cecc;fontFamily=Verdana;fontSize=13;rotation=45;gradientColor=#ea6b66;strokeColor=#b85450;" parent="139" vertex="1">
                    <mxGeometry x="19.999902576697338" y="69.99990257669731" width="5" height="40" as="geometry"/>
                </mxCell>
                <mxCell id="30" value="creer un compte employé" style="shape=ext;double=1;rounded=1;whiteSpace=wrap;html=1;shadow=1;strokeColor=#FF0000;fontFamily=Verdana;fontSize=13;fontColor=#FFFFFF;fillColor=none;gradientColor=default;" parent="1" vertex="1">
                    <mxGeometry x="500" y="400" width="120" height="80" as="geometry"/>
                </mxCell>
                <mxCell id="31" value="" style="endArrow=none;html=1;strokeWidth=3;fontFamily=Verdana;fontSize=13;fontColor=#FFFFFF;startArrow=none;startFill=0;entryX=-0.3;entryY=0.513;entryDx=0;entryDy=0;exitX=1;exitY=0.5;exitDx=0;exitDy=0;entryPerimeter=0;" parent="1" source="30" target="17" edge="1">
                    <mxGeometry width="50" height="50" relative="1" as="geometry">
                        <mxPoint x="695" y="300" as="sourcePoint"/>
                        <mxPoint x="515" y="250" as="targetPoint"/>
                        <Array as="points"/>
                    </mxGeometry>
                </mxCell>
                <mxCell id="35" value="consulter la liste de véhicule" style="shape=ext;double=1;rounded=1;whiteSpace=wrap;html=1;shadow=1;strokeColor=default;fontFamily=Verdana;fontSize=13;fontColor=#FFFFFF;fillColor=none;gradientColor=default;" parent="1" vertex="1">
                    <mxGeometry x="-150" y="5" width="142.5" height="100" as="geometry"/>
                </mxCell>
                <mxCell id="89" value="" style="endArrow=none;html=1;strokeWidth=3;fontFamily=Verdana;fontSize=13;fontColor=#FFFFFF;startArrow=none;startFill=0;entryX=0;entryY=0;entryDx=107.5;entryDy=12.5;exitX=0;exitY=0.25;exitDx=0;exitDy=0;entryPerimeter=0;" parent="1" source="87" target="26" edge="1">
                    <mxGeometry width="50" height="50" relative="1" as="geometry">
                        <mxPoint x="80" y="310" as="sourcePoint"/>
                        <mxPoint x="-320" y="150" as="targetPoint"/>
                        <Array as="points"/>
                    </mxGeometry>
                </mxCell>
                <mxCell id="100" value="modéré les avis client" style="shape=ext;double=1;rounded=1;whiteSpace=wrap;html=1;shadow=1;strokeColor=#33FF33;fontFamily=Verdana;fontSize=13;fontColor=#FFFFFF;fillColor=none;gradientColor=default;" parent="1" vertex="1">
                    <mxGeometry x="450" y="130" width="120" height="80" as="geometry"/>
                </mxCell>
                <mxCell id="102" value="" style="endArrow=none;html=1;strokeWidth=3;fontFamily=Verdana;fontSize=13;fontColor=#FFFFFF;startArrow=none;startFill=0;entryX=0.967;entryY=0.226;entryDx=0;entryDy=0;entryPerimeter=0;exitX=1;exitY=0.75;exitDx=0;exitDy=0;" parent="1" source="114" target="23" edge="1">
                    <mxGeometry width="50" height="50" relative="1" as="geometry">
                        <mxPoint x="790" y="120" as="sourcePoint"/>
                        <mxPoint x="697.04" y="267.6" as="targetPoint"/>
                        <Array as="points"/>
                    </mxGeometry>
                </mxCell>
                <mxCell id="107" value="Ajouter ou supprimer des véhicules à la liste" style="shape=ext;double=1;rounded=1;whiteSpace=wrap;html=1;shadow=1;strokeColor=#33FF33;fontFamily=Verdana;fontSize=13;fontColor=#FFFFFF;fillColor=none;gradientColor=default;" parent="1" vertex="1">
                    <mxGeometry x="500" y="250" width="120" height="80" as="geometry"/>
                </mxCell>
                <mxCell id="110" value="" style="endArrow=none;html=1;strokeWidth=3;fontFamily=Verdana;fontSize=13;fontColor=#FFFFFF;startArrow=none;startFill=0;entryX=-0.633;entryY=0.78;entryDx=0;entryDy=0;entryPerimeter=0;exitX=1;exitY=0.5;exitDx=0;exitDy=0;" parent="1" source="100" target="22" edge="1">
                    <mxGeometry width="50" height="50" relative="1" as="geometry">
                        <mxPoint x="400" y="320" as="sourcePoint"/>
                        <mxPoint x="470" y="170" as="targetPoint"/>
                        <Array as="points"/>
                    </mxGeometry>
                </mxCell>
                <mxCell id="113" value="" style="endArrow=none;html=1;strokeWidth=3;fontFamily=Verdana;fontSize=13;fontColor=#FFFFFF;startArrow=none;startFill=0;entryX=0;entryY=0.5;entryDx=0;entryDy=0;exitX=1;exitY=0.5;exitDx=0;exitDy=0;" parent="1" source="156" target="100" edge="1">
                    <mxGeometry width="50" height="50" relative="1" as="geometry">
                        <mxPoint x="270" y="260" as="sourcePoint"/>
                        <mxPoint x="392.5" y="249.9999999999999" as="targetPoint"/>
                        <Array as="points"/>
                    </mxGeometry>
                </mxCell>
                <mxCell id="114" value="se connecter" style="shape=ext;double=1;rounded=1;whiteSpace=wrap;html=1;shadow=1;strokeColor=#33FF33;fontFamily=Verdana;fontSize=13;fontColor=#ffffff;fillColor=none;" parent="1" vertex="1">
                    <mxGeometry x="510" y="-10" width="120" height="80" as="geometry"/>
                </mxCell>
                <mxCell id="121" value="" style="endArrow=none;html=1;strokeWidth=3;fontFamily=Verdana;fontSize=13;fontColor=#FFFFFF;startArrow=none;startFill=0;entryX=0.712;entryY=0.114;entryDx=0;entryDy=0;exitX=1;exitY=0.75;exitDx=0;exitDy=0;entryPerimeter=0;" parent="1" source="107" target="24" edge="1">
                    <mxGeometry width="50" height="50" relative="1" as="geometry">
                        <mxPoint x="590" y="620" as="sourcePoint"/>
                        <mxPoint x="620" y="750" as="targetPoint"/>
                        <Array as="points"/>
                    </mxGeometry>
                </mxCell>
                <mxCell id="125" value="Modifie les horaires sur chaques footers" style="shape=ext;double=1;rounded=1;whiteSpace=wrap;html=1;shadow=1;strokeColor=#FF0000;fontFamily=Verdana;fontSize=13;fontColor=#FFFFFF;fillColor=none;gradientColor=default;" parent="1" vertex="1">
                    <mxGeometry x="510" y="700" width="120" height="80" as="geometry"/>
                </mxCell>
                <mxCell id="126" value="modifie les services sur le site" style="shape=ext;double=1;rounded=1;whiteSpace=wrap;html=1;shadow=1;strokeColor=#FF0000;fontFamily=Verdana;fontSize=13;fontColor=#FFFFFF;fillColor=none;gradientColor=default;" parent="1" vertex="1">
                    <mxGeometry x="500" y="550" width="120" height="80" as="geometry"/>
                </mxCell>
                <mxCell id="127" value="" style="endArrow=none;html=1;strokeWidth=3;fontFamily=Verdana;fontSize=13;fontColor=#FFFFFF;startArrow=none;startFill=0;exitX=0;exitY=0.5;exitDx=0;exitDy=0;" parent="1" source="35" edge="1">
                    <mxGeometry width="50" height="50" relative="1" as="geometry">
                        <mxPoint x="155" y="350" as="sourcePoint"/>
                        <mxPoint x="-510" y="110" as="targetPoint"/>
                        <Array as="points"/>
                    </mxGeometry>
                </mxCell>
                <mxCell id="87" value="lire / mettre un avis client" style="shape=ext;double=1;rounded=1;whiteSpace=wrap;html=1;shadow=1;strokeColor=default;fontFamily=Verdana;fontSize=14;fontColor=#ffffff;fillColor=none;fontStyle=0" parent="1" vertex="1">
                    <mxGeometry x="-133.75" y="165" width="110" height="85" as="geometry"/>
                </mxCell>
                <mxCell id="143" value="contacter l'atelier" style="shape=ext;double=1;rounded=1;whiteSpace=wrap;html=1;shadow=1;strokeColor=default;fontFamily=Verdana;fontSize=14;fontColor=#ffffff;fillColor=none;fontStyle=0" parent="1" vertex="1">
                    <mxGeometry x="-140" y="305" width="110" height="85" as="geometry"/>
                </mxCell>
                <mxCell id="144" value="" style="endArrow=none;html=1;strokeWidth=3;fontFamily=Verdana;fontSize=13;fontColor=#FFFFFF;startArrow=none;startFill=0;entryX=0.5;entryY=0;entryDx=0;entryDy=0;exitX=0;exitY=0.5;exitDx=0;exitDy=0;entryPerimeter=0;" parent="1" source="143" target="26" edge="1">
                    <mxGeometry width="50" height="50" relative="1" as="geometry">
                        <mxPoint x="-150" y="473.75" as="sourcePoint"/>
                        <mxPoint x="-497.5" y="350" as="targetPoint"/>
                        <Array as="points"/>
                    </mxGeometry>
                </mxCell>
                <mxCell id="20" value="" style="group;fillColor=none;gradientColor=#b3b3b3;strokeColor=none;" parent="1" vertex="1" connectable="0">
                    <mxGeometry x="890" y="95" width="130" height="315" as="geometry"/>
                </mxCell>
                <mxCell id="28" value="&lt;font color=&quot;#ffffff&quot;&gt;Employé&lt;/font&gt;" style="shape=note2;boundedLbl=1;whiteSpace=wrap;html=1;size=25;verticalAlign=middle;align=center;fontFamily=Verdana;fontSize=13;fontColor=#1A1A1A;fillColor=none;gradientColor=none;shadow=0;strokeColor=none;" parent="20" vertex="1">
                    <mxGeometry x="-25" y="110" width="120" height="40" as="geometry"/>
                </mxCell>
                <mxCell id="140" value="" style="group" parent="20" vertex="1" connectable="0">
                    <mxGeometry y="10" width="65" height="105.90990257669732" as="geometry"/>
                </mxCell>
                <mxCell id="21" value="" style="ellipse;fillColor=#d5e8d4;fontFamily=Verdana;fontSize=13;gradientColor=#97d077;strokeColor=none;" parent="140" vertex="1">
                    <mxGeometry x="20" width="30" height="30" as="geometry"/>
                </mxCell>
                <mxCell id="22" value="" style="html=1;points=[];perimeter=orthogonalPerimeter;fillColor=#d5e8d4;fontFamily=Verdana;fontSize=13;gradientColor=#97d077;strokeColor=#82b366;" parent="140" vertex="1">
                    <mxGeometry x="32.5" y="30" width="5" height="50" as="geometry"/>
                </mxCell>
                <mxCell id="23" value="" style="html=1;points=[];perimeter=orthogonalPerimeter;fillColor=#d5e8d4;fontFamily=Verdana;fontSize=13;rotation=-90;gradientColor=#97d077;strokeColor=#82b366;" parent="140" vertex="1">
                    <mxGeometry x="30" y="17.5" width="5" height="65" as="geometry"/>
                </mxCell>
                <mxCell id="24" value="" style="html=1;points=[];perimeter=orthogonalPerimeter;fillColor=#d5e8d4;fontFamily=Verdana;fontSize=13;rotation=-45;gradientColor=#97d077;strokeColor=#82b366;" parent="140" vertex="1">
                    <mxGeometry x="45" y="70" width="5" height="40" as="geometry"/>
                </mxCell>
                <mxCell id="25" value="" style="html=1;points=[];perimeter=orthogonalPerimeter;fillColor=#d5e8d4;fontFamily=Verdana;fontSize=13;rotation=45;gradientColor=#97d077;strokeColor=#82b366;" parent="140" vertex="1">
                    <mxGeometry x="19.999902576697338" y="69.99990257669731" width="5" height="40" as="geometry"/>
                </mxCell>
                <mxCell id="149" value="" style="endArrow=none;html=1;strokeWidth=3;fontFamily=Verdana;fontSize=13;fontColor=#FFFFFF;startArrow=none;startFill=0;entryX=-0.608;entryY=0.638;entryDx=0;entryDy=0;exitX=1;exitY=0.5;exitDx=0;exitDy=0;entryPerimeter=0;" parent="1" source="126" target="19" edge="1">
                    <mxGeometry width="50" height="50" relative="1" as="geometry">
                        <mxPoint x="790" y="610" as="sourcePoint"/>
                        <mxPoint x="1093.3449999999998" y="724" as="targetPoint"/>
                        <Array as="points"/>
                    </mxGeometry>
                </mxCell>
                <mxCell id="152" value="Vérifie le mot de passe&amp;nbsp;" style="shape=ext;double=1;rounded=1;whiteSpace=wrap;html=1;shadow=1;strokeColor=default;fontFamily=Verdana;fontSize=14;fontColor=#ffffff;fillColor=none;fontStyle=0" parent="1" vertex="1">
                    <mxGeometry x="170" width="110" height="85" as="geometry"/>
                </mxCell>
                <mxCell id="155" value="Montre un message d'erreur&amp;nbsp;" style="shape=ext;double=1;rounded=1;whiteSpace=wrap;html=1;shadow=1;strokeColor=default;fontFamily=Verdana;fontSize=14;fontColor=#ffffff;fillColor=none;fontStyle=0" parent="1" vertex="1">
                    <mxGeometry x="170" y="130" width="110" height="85" as="geometry"/>
                </mxCell>
                <mxCell id="156" value="Avis clients" style="shape=ext;double=1;rounded=1;whiteSpace=wrap;html=1;shadow=1;strokeColor=default;fontFamily=Verdana;fontSize=14;fontColor=#ffffff;fillColor=none;fontStyle=0" parent="1" vertex="1">
                    <mxGeometry x="170" y="260" width="110" height="85" as="geometry"/>
                </mxCell>
                <mxCell id="157" value="supprimer avis clients" style="shape=ext;double=1;rounded=1;whiteSpace=wrap;html=1;shadow=1;strokeColor=default;fontFamily=Verdana;fontSize=14;fontColor=#ffffff;fillColor=none;fontStyle=0" parent="1" vertex="1">
                    <mxGeometry x="170" y="430" width="110" height="85" as="geometry"/>
                </mxCell>
                <mxCell id="160" value="" style="endArrow=none;html=1;strokeWidth=3;fontFamily=Verdana;fontSize=13;fontColor=#FFFFFF;startArrow=block;startFill=1;dashed=1;entryX=0;entryY=0.5;entryDx=0;entryDy=0;exitX=1;exitY=0.5;exitDx=0;exitDy=0;" parent="1" source="152" target="114" edge="1">
                    <mxGeometry width="50" height="50" relative="1" as="geometry">
                        <mxPoint x="280.00000000000045" y="42.5" as="sourcePoint"/>
                        <mxPoint x="510.00000000000045" y="30" as="targetPoint"/>
                        <Array as="points"/>
                    </mxGeometry>
                </mxCell>
                <mxCell id="159" value="&amp;lt;&amp;lt;include&amp;gt;&amp;gt;" style="rounded=1;whiteSpace=wrap;html=1;strokeColor=none;strokeWidth=8;fontSize=14;fillColor=none;arcSize=2;rotation=359;" parent="1" vertex="1">
                    <mxGeometry x="350" y="25" width="120" height="60" as="geometry"/>
                </mxCell>
                <mxCell id="170" value="" style="endArrow=none;html=1;strokeWidth=3;fontFamily=Verdana;fontSize=13;fontColor=#FFFFFF;startArrow=block;startFill=1;dashed=1;exitX=0.25;exitY=1;exitDx=0;exitDy=0;entryX=1;entryY=0.5;entryDx=0;entryDy=0;" parent="1" source="114" target="155" edge="1">
                    <mxGeometry width="50" height="50" relative="1" as="geometry">
                        <mxPoint x="280" y="172.5" as="sourcePoint"/>
                        <mxPoint x="300" y="130" as="targetPoint"/>
                        <Array as="points"/>
                    </mxGeometry>
                </mxCell>
                <mxCell id="169" value="&amp;lt;&amp;lt;extend&amp;gt;&amp;gt;" style="rounded=1;whiteSpace=wrap;html=1;strokeColor=none;strokeWidth=8;fontSize=14;fillColor=none;arcSize=2;rotation=338;" parent="1" vertex="1">
                    <mxGeometry x="350.004433902502" y="100.00257524092882" width="120" height="60" as="geometry"/>
                </mxCell>
                <mxCell id="172" value="" style="endArrow=none;html=1;strokeWidth=3;fontFamily=Verdana;fontSize=13;fontColor=#FFFFFF;startArrow=block;startFill=1;dashed=1;exitX=0.599;exitY=1.081;exitDx=0;exitDy=0;exitPerimeter=0;" parent="1" source="156" edge="1">
                    <mxGeometry width="50" height="50" relative="1" as="geometry">
                        <mxPoint x="300" y="400" as="sourcePoint"/>
                        <mxPoint x="230" y="430" as="targetPoint"/>
                        <Array as="points"/>
                    </mxGeometry>
                </mxCell>
                <mxCell id="173" value="&amp;lt;&amp;lt;extend&amp;gt;&amp;gt;" style="rounded=1;whiteSpace=wrap;html=1;strokeColor=none;strokeWidth=8;fontSize=14;fillColor=none;arcSize=2;rotation=352;" parent="1" vertex="1">
                    <mxGeometry x="230.0092290764846" y="360.00191124195834" width="120" height="60" as="geometry"/>
                </mxCell>
                <mxCell id="174" value="" style="endArrow=none;html=1;strokeWidth=3;fontFamily=Verdana;fontSize=13;fontColor=#FFFFFF;startArrow=none;startFill=0;exitX=1;exitY=0.5;exitDx=0;exitDy=0;entryX=0;entryY=0;entryDx=47.5;entryDy=0;entryPerimeter=0;" parent="1" source="125" target="27" edge="1">
                    <mxGeometry width="50" height="50" relative="1" as="geometry">
                        <mxPoint x="630" y="740" as="sourcePoint"/>
                        <mxPoint x="910" y="600" as="targetPoint"/>
                        <Array as="points"/>
                    </mxGeometry>
                </mxCell>
                <mxCell id="176" value="" style="endArrow=none;html=1;strokeWidth=3;fontFamily=Verdana;fontSize=13;fontColor=#FFFFFF;startArrow=block;startFill=1;dashed=1;exitX=0;exitY=0.5;exitDx=0;exitDy=0;entryX=1;entryY=0.5;entryDx=0;entryDy=0;" parent="1" source="156" target="87" edge="1">
                    <mxGeometry width="50" height="50" relative="1" as="geometry">
                        <mxPoint x="40" y="370" as="sourcePoint"/>
                        <mxPoint x="-220" y="472.5" as="targetPoint"/>
                        <Array as="points"/>
                    </mxGeometry>
                </mxCell>
                <mxCell id="177" value="&amp;lt;&amp;lt;include&amp;gt;&amp;gt;" style="rounded=1;whiteSpace=wrap;html=1;strokeColor=none;strokeWidth=8;fontSize=14;fillColor=none;arcSize=2;rotation=359;" parent="1" vertex="1">
                    <mxGeometry x="20.00443390250199" y="305.00257524092876" width="120" height="60" as="geometry"/>
                </mxCell>
            </root>
        </mxGraphModel>
    </diagram>
</mxfile>